<svg width="24" height="24" viewBox="0 0 24 24" fill="none" xmlns="http://www.w3.org/2000/svg">
<path d="M16.1948 20.64V6.67122C16.1948 4.73119 14.9861 3.36 13.0442 3.36H7.48752C5.55123 3.36 4.33789 4.73119 4.33789 6.67122V20.64" stroke="#23252E" stroke-width="1.44" stroke-linecap="round" stroke-linejoin="round"/>
<path d="M3.1275 20.64H17.4073" stroke="#23252E" stroke-width="1.44" stroke-linecap="round" stroke-linejoin="round"/>
<path d="M18.6192 6.85593L20.3938 8.63064V15.8611C20.3938 16.4589 19.91 16.9428 19.3122 16.9428C18.7154 16.9428 18.2306 16.4589 18.2306 15.8611V14.4862C18.2306 13.8894 17.7459 13.4046 17.1489 13.4046H16.1962" stroke="#23252E" stroke-width="1.44" stroke-linecap="round" stroke-linejoin="round"/>
<path d="M9.08252 17.2772H11.4568" stroke="#23252E" stroke-width="1.44" stroke-linecap="round" stroke-linejoin="round"/>
<path d="M8.29845 6.68532H12.2346C13.0631 6.68532 13.5787 7.27003 13.5787 8.0976V10.3319C13.5787 11.1594 13.0631 11.7442 12.2346 11.7442H8.29845C7.46994 11.7442 6.95435 11.1594 6.95435 10.3319V8.0976C6.95435 7.27003 7.47275 6.68532 8.29845 6.68532Z" stroke="#23252E" stroke-width="1.44" stroke-linecap="round" stroke-linejoin="round"/>
<path d="M10.8419 9.31499L10.005 11.7444" stroke="#23252E" stroke-width="1.44" stroke-linecap="round" stroke-linejoin="round"/>
</svg>
